<svg width="540" height="290" viewBox="0 0 540 290" fill="none" xmlns="http://www.w3.org/2000/svg">
<g clip-path="url(#clip0_10_295)">
<g filter="url(#filter0_d_10_295)">
<rect x="89.4919" y="107.145" width="136.581" height="164.839" fill="#475569"/>
<rect x="104.21" y="125.395" width="87.7177" height="18.8387" fill="#6D7D94"/>
<rect x="115.984" y="167.782" width="95.371" height="6.47581" fill="#6D7D94"/>
<rect x="104.21" y="177.791" width="107.145" height="6.47581" fill="#6D7D94"/>
<rect x="104.21" y="187.799" width="81.8306" height="6.47581" fill="#6D7D94"/>
<rect x="115.984" y="197.807" width="95.371" height="6.47581" fill="#6D7D94"/>
<rect x="104.21" y="207.815" width="103.613" height="6.47581" fill="#6D7D94"/>
<rect x="115.984" y="217.823" width="95.371" height="6.47581" fill="#6D7D94"/>
<rect x="104.21" y="227.831" width="107.145" height="6.47581" fill="#6D7D94"/>
<rect x="104.21" y="237.839" width="61.2258" height="6.47581" fill="#6D7D94"/>
</g>
<g filter="url(#filter1_d_10_295)">
<rect x="316.145" y="109.5" width="136.581" height="164.839" fill="#475569"/>
<rect x="330.863" y="127.75" width="87.7177" height="18.8387" fill="#6D7D94"/>
<rect x="342.637" y="170.137" width="95.371" height="6.47581" fill="#6D7D94"/>
<rect x="330.863" y="180.145" width="107.145" height="6.47581" fill="#6D7D94"/>
<rect x="330.863" y="190.153" width="81.8306" height="6.47581" fill="#6D7D94"/>
<rect x="342.637" y="200.161" width="95.371" height="6.47581" fill="#6D7D94"/>
<rect x="330.863" y="210.169" width="103.613" height="6.47581" fill="#6D7D94"/>
<rect x="342.637" y="220.177" width="95.371" height="6.47581" fill="#6D7D94"/>
<rect x="330.863" y="230.186" width="107.145" height="6.47581" fill="#6D7D94"/>
<rect x="330.863" y="240.194" width="61.2258" height="6.47581" fill="#6D7D94"/>
</g>
<g filter="url(#filter2_d_10_295)">
<rect x="364.419" y="16.4839" width="136.581" height="164.839" fill="#475569"/>
<rect x="379.137" y="34.7339" width="87.7177" height="18.8387" fill="#6D7D94"/>
<rect x="390.911" y="77.1208" width="95.371" height="6.47581" fill="#6D7D94"/>
<rect x="379.137" y="87.1289" width="107.145" height="6.47581" fill="#6D7D94"/>
<rect x="379.137" y="97.137" width="81.8306" height="6.47581" fill="#6D7D94"/>
<rect x="390.911" y="107.145" width="95.371" height="6.47581" fill="#6D7D94"/>
<rect x="379.137" y="117.153" width="103.613" height="6.47581" fill="#6D7D94"/>
<rect x="390.911" y="127.161" width="95.371" height="6.47581" fill="#6D7D94"/>
<rect x="379.137" y="137.169" width="107.145" height="6.47581" fill="#6D7D94"/>
<rect x="379.137" y="147.177" width="61.2258" height="6.47581" fill="#6D7D94"/>
</g>
<g filter="url(#filter3_d_10_295)">
<rect x="279.645" y="97.7258" width="136.581" height="164.839" fill="#475569"/>
<rect x="294.363" y="115.976" width="87.7177" height="18.8387" fill="#6D7D94"/>
<rect x="306.137" y="158.363" width="95.371" height="6.47581" fill="#6D7D94"/>
<rect x="294.363" y="168.371" width="107.145" height="6.47581" fill="#6D7D94"/>
<rect x="294.363" y="178.379" width="81.8306" height="6.47581" fill="#6D7D94"/>
<rect x="306.137" y="188.387" width="95.371" height="6.47581" fill="#6D7D94"/>
<rect x="294.363" y="198.395" width="103.613" height="6.47581" fill="#6D7D94"/>
<rect x="306.137" y="208.403" width="95.371" height="6.47581" fill="#6D7D94"/>
<rect x="294.363" y="218.411" width="107.145" height="6.47581" fill="#6D7D94"/>
<rect x="294.363" y="228.419" width="61.2258" height="6.47581" fill="#6D7D94"/>
</g>
<g filter="url(#filter4_d_10_295)">
<rect x="379.137" y="213.702" width="136.581" height="164.839" fill="#475569"/>
<rect x="393.855" y="231.952" width="87.7177" height="18.8387" fill="#6D7D94"/>
<rect x="405.629" y="274.339" width="95.371" height="6.47581" fill="#6D7D94"/>
<rect x="393.855" y="284.347" width="107.145" height="6.47581" fill="#6D7D94"/>
</g>
<g filter="url(#filter5_d_10_295)">
<rect x="437.419" y="101.847" width="136.581" height="164.839" fill="#475569"/>
<rect x="452.137" y="120.097" width="87.7177" height="18.8387" fill="#6D7D94"/>
<rect x="463.911" y="162.484" width="95.371" height="6.47581" fill="#6D7D94"/>
<rect x="452.137" y="172.492" width="107.145" height="6.47581" fill="#6D7D94"/>
<rect x="452.137" y="182.5" width="81.8306" height="6.47581" fill="#6D7D94"/>
<rect x="463.911" y="192.508" width="95.371" height="6.47581" fill="#6D7D94"/>
<rect x="452.137" y="202.516" width="103.613" height="6.47581" fill="#6D7D94"/>
<rect x="463.911" y="212.524" width="95.371" height="6.47581" fill="#6D7D94"/>
<rect x="452.137" y="222.532" width="107.145" height="6.47581" fill="#6D7D94"/>
<rect x="452.137" y="232.54" width="61.2258" height="6.47581" fill="#6D7D94"/>
</g>
<g filter="url(#filter6_d_10_295)">
<rect x="201.347" y="187.798" width="136.581" height="164.839" fill="#475569"/>
<rect x="216.065" y="206.048" width="87.7177" height="18.8387" fill="#6D7D94"/>
<rect x="227.839" y="248.436" width="95.371" height="6.47581" fill="#6D7D94"/>
<rect x="216.065" y="258.444" width="107.145" height="6.47581" fill="#6D7D94"/>
<rect x="216.065" y="268.452" width="81.8306" height="6.47581" fill="#6D7D94"/>
<rect x="227.839" y="278.46" width="95.371" height="6.47581" fill="#6D7D94"/>
<rect x="216.065" y="288.468" width="103.613" height="6.47581" fill="#6D7D94"/>
</g>
<g filter="url(#filter7_d_10_295)">
<rect x="259.629" width="136.581" height="164.839" fill="#475569"/>
<rect x="274.347" y="18.25" width="87.7177" height="18.8387" fill="#6D7D94"/>
<rect x="286.121" y="60.637" width="95.371" height="6.47581" fill="#6D7D94"/>
<rect x="274.347" y="70.645" width="107.145" height="6.47581" fill="#6D7D94"/>
<rect x="274.347" y="80.6531" width="81.8306" height="6.47581" fill="#6D7D94"/>
<rect x="286.121" y="90.6611" width="95.371" height="6.47581" fill="#6D7D94"/>
<rect x="274.347" y="100.669" width="103.613" height="6.47581" fill="#6D7D94"/>
<rect x="286.121" y="110.677" width="95.371" height="6.47581" fill="#6D7D94"/>
<rect x="274.347" y="120.686" width="107.145" height="6.47581" fill="#6D7D94"/>
<rect x="274.347" y="130.694" width="61.2258" height="6.47581" fill="#6D7D94"/>
</g>
<g filter="url(#filter8_d_10_295)">
<rect x="220.774" y="65.3467" width="136.581" height="164.839" fill="#475569"/>
<rect x="235.492" y="83.5967" width="87.7177" height="18.8387" fill="#6D7D94"/>
<rect x="247.266" y="125.984" width="95.371" height="6.47581" fill="#6D7D94"/>
<rect x="235.492" y="135.992" width="107.145" height="6.47581" fill="#6D7D94"/>
<rect x="235.492" y="146" width="81.8306" height="6.47581" fill="#6D7D94"/>
<rect x="247.266" y="156.008" width="95.371" height="6.47581" fill="#6D7D94"/>
<rect x="235.492" y="166.016" width="103.613" height="6.47581" fill="#6D7D94"/>
<rect x="247.266" y="176.024" width="95.371" height="6.47581" fill="#6D7D94"/>
<rect x="235.492" y="186.032" width="107.145" height="6.47581" fill="#6D7D94"/>
<rect x="235.492" y="196.04" width="61.2258" height="6.47581" fill="#6D7D94"/>
</g>
<g filter="url(#filter9_d_10_295)">
<rect x="63" y="76.5322" width="136.581" height="164.839" fill="#475569"/>
<rect x="77.7178" y="94.7822" width="87.7177" height="18.8387" fill="#6D7D94"/>
<rect x="89.4919" y="137.169" width="95.371" height="6.47581" fill="#6D7D94"/>
<rect x="77.7178" y="147.177" width="107.145" height="6.47581" fill="#6D7D94"/>
<rect x="77.7178" y="157.186" width="81.8306" height="6.47581" fill="#6D7D94"/>
<rect x="89.4919" y="167.194" width="95.371" height="6.47581" fill="#6D7D94"/>
<rect x="77.7178" y="177.202" width="103.613" height="6.47581" fill="#6D7D94"/>
<rect x="89.4919" y="187.21" width="95.371" height="6.47581" fill="#6D7D94"/>
<rect x="77.7178" y="197.218" width="107.145" height="6.47581" fill="#6D7D94"/>
<rect x="77.7178" y="207.226" width="61.2258" height="6.47581" fill="#6D7D94"/>
</g>
</g>
<defs>
<filter id="filter0_d_10_295" x="89.4919" y="107.145" width="144.581" height="172.839" filterUnits="userSpaceOnUse" color-interpolation-filters="sRGB">
<feFlood flood-opacity="0" result="BackgroundImageFix"/>
<feColorMatrix in="SourceAlpha" type="matrix" values="0 0 0 0 0 0 0 0 0 0 0 0 0 0 0 0 0 0 127 0" result="hardAlpha"/>
<feOffset dx="4" dy="4"/>
<feGaussianBlur stdDeviation="2"/>
<feComposite in2="hardAlpha" operator="out"/>
<feColorMatrix type="matrix" values="0 0 0 0 0 0 0 0 0 0 0 0 0 0 0 0 0 0 0.25 0"/>
<feBlend mode="normal" in2="BackgroundImageFix" result="effect1_dropShadow_10_295"/>
<feBlend mode="normal" in="SourceGraphic" in2="effect1_dropShadow_10_295" result="shape"/>
</filter>
<filter id="filter1_d_10_295" x="316.145" y="109.5" width="144.581" height="172.839" filterUnits="userSpaceOnUse" color-interpolation-filters="sRGB">
<feFlood flood-opacity="0" result="BackgroundImageFix"/>
<feColorMatrix in="SourceAlpha" type="matrix" values="0 0 0 0 0 0 0 0 0 0 0 0 0 0 0 0 0 0 127 0" result="hardAlpha"/>
<feOffset dx="4" dy="4"/>
<feGaussianBlur stdDeviation="2"/>
<feComposite in2="hardAlpha" operator="out"/>
<feColorMatrix type="matrix" values="0 0 0 0 0 0 0 0 0 0 0 0 0 0 0 0 0 0 0.25 0"/>
<feBlend mode="normal" in2="BackgroundImageFix" result="effect1_dropShadow_10_295"/>
<feBlend mode="normal" in="SourceGraphic" in2="effect1_dropShadow_10_295" result="shape"/>
</filter>
<filter id="filter2_d_10_295" x="364.419" y="16.4839" width="144.581" height="172.839" filterUnits="userSpaceOnUse" color-interpolation-filters="sRGB">
<feFlood flood-opacity="0" result="BackgroundImageFix"/>
<feColorMatrix in="SourceAlpha" type="matrix" values="0 0 0 0 0 0 0 0 0 0 0 0 0 0 0 0 0 0 127 0" result="hardAlpha"/>
<feOffset dx="4" dy="4"/>
<feGaussianBlur stdDeviation="2"/>
<feComposite in2="hardAlpha" operator="out"/>
<feColorMatrix type="matrix" values="0 0 0 0 0 0 0 0 0 0 0 0 0 0 0 0 0 0 0.25 0"/>
<feBlend mode="normal" in2="BackgroundImageFix" result="effect1_dropShadow_10_295"/>
<feBlend mode="normal" in="SourceGraphic" in2="effect1_dropShadow_10_295" result="shape"/>
</filter>
<filter id="filter3_d_10_295" x="279.645" y="97.7258" width="144.581" height="172.839" filterUnits="userSpaceOnUse" color-interpolation-filters="sRGB">
<feFlood flood-opacity="0" result="BackgroundImageFix"/>
<feColorMatrix in="SourceAlpha" type="matrix" values="0 0 0 0 0 0 0 0 0 0 0 0 0 0 0 0 0 0 127 0" result="hardAlpha"/>
<feOffset dx="4" dy="4"/>
<feGaussianBlur stdDeviation="2"/>
<feComposite in2="hardAlpha" operator="out"/>
<feColorMatrix type="matrix" values="0 0 0 0 0 0 0 0 0 0 0 0 0 0 0 0 0 0 0.25 0"/>
<feBlend mode="normal" in2="BackgroundImageFix" result="effect1_dropShadow_10_295"/>
<feBlend mode="normal" in="SourceGraphic" in2="effect1_dropShadow_10_295" result="shape"/>
</filter>
<filter id="filter4_d_10_295" x="379.137" y="213.702" width="144.581" height="172.839" filterUnits="userSpaceOnUse" color-interpolation-filters="sRGB">
<feFlood flood-opacity="0" result="BackgroundImageFix"/>
<feColorMatrix in="SourceAlpha" type="matrix" values="0 0 0 0 0 0 0 0 0 0 0 0 0 0 0 0 0 0 127 0" result="hardAlpha"/>
<feOffset dx="4" dy="4"/>
<feGaussianBlur stdDeviation="2"/>
<feComposite in2="hardAlpha" operator="out"/>
<feColorMatrix type="matrix" values="0 0 0 0 0 0 0 0 0 0 0 0 0 0 0 0 0 0 0.25 0"/>
<feBlend mode="normal" in2="BackgroundImageFix" result="effect1_dropShadow_10_295"/>
<feBlend mode="normal" in="SourceGraphic" in2="effect1_dropShadow_10_295" result="shape"/>
</filter>
<filter id="filter5_d_10_295" x="437.419" y="101.847" width="144.581" height="172.839" filterUnits="userSpaceOnUse" color-interpolation-filters="sRGB">
<feFlood flood-opacity="0" result="BackgroundImageFix"/>
<feColorMatrix in="SourceAlpha" type="matrix" values="0 0 0 0 0 0 0 0 0 0 0 0 0 0 0 0 0 0 127 0" result="hardAlpha"/>
<feOffset dx="4" dy="4"/>
<feGaussianBlur stdDeviation="2"/>
<feComposite in2="hardAlpha" operator="out"/>
<feColorMatrix type="matrix" values="0 0 0 0 0 0 0 0 0 0 0 0 0 0 0 0 0 0 0.25 0"/>
<feBlend mode="normal" in2="BackgroundImageFix" result="effect1_dropShadow_10_295"/>
<feBlend mode="normal" in="SourceGraphic" in2="effect1_dropShadow_10_295" result="shape"/>
</filter>
<filter id="filter6_d_10_295" x="201.347" y="187.798" width="144.581" height="172.839" filterUnits="userSpaceOnUse" color-interpolation-filters="sRGB">
<feFlood flood-opacity="0" result="BackgroundImageFix"/>
<feColorMatrix in="SourceAlpha" type="matrix" values="0 0 0 0 0 0 0 0 0 0 0 0 0 0 0 0 0 0 127 0" result="hardAlpha"/>
<feOffset dx="4" dy="4"/>
<feGaussianBlur stdDeviation="2"/>
<feComposite in2="hardAlpha" operator="out"/>
<feColorMatrix type="matrix" values="0 0 0 0 0 0 0 0 0 0 0 0 0 0 0 0 0 0 0.25 0"/>
<feBlend mode="normal" in2="BackgroundImageFix" result="effect1_dropShadow_10_295"/>
<feBlend mode="normal" in="SourceGraphic" in2="effect1_dropShadow_10_295" result="shape"/>
</filter>
<filter id="filter7_d_10_295" x="259.629" y="0" width="144.581" height="172.839" filterUnits="userSpaceOnUse" color-interpolation-filters="sRGB">
<feFlood flood-opacity="0" result="BackgroundImageFix"/>
<feColorMatrix in="SourceAlpha" type="matrix" values="0 0 0 0 0 0 0 0 0 0 0 0 0 0 0 0 0 0 127 0" result="hardAlpha"/>
<feOffset dx="4" dy="4"/>
<feGaussianBlur stdDeviation="2"/>
<feComposite in2="hardAlpha" operator="out"/>
<feColorMatrix type="matrix" values="0 0 0 0 0 0 0 0 0 0 0 0 0 0 0 0 0 0 0.25 0"/>
<feBlend mode="normal" in2="BackgroundImageFix" result="effect1_dropShadow_10_295"/>
<feBlend mode="normal" in="SourceGraphic" in2="effect1_dropShadow_10_295" result="shape"/>
</filter>
<filter id="filter8_d_10_295" x="220.774" y="65.3467" width="144.581" height="172.839" filterUnits="userSpaceOnUse" color-interpolation-filters="sRGB">
<feFlood flood-opacity="0" result="BackgroundImageFix"/>
<feColorMatrix in="SourceAlpha" type="matrix" values="0 0 0 0 0 0 0 0 0 0 0 0 0 0 0 0 0 0 127 0" result="hardAlpha"/>
<feOffset dx="4" dy="4"/>
<feGaussianBlur stdDeviation="2"/>
<feComposite in2="hardAlpha" operator="out"/>
<feColorMatrix type="matrix" values="0 0 0 0 0 0 0 0 0 0 0 0 0 0 0 0 0 0 0.25 0"/>
<feBlend mode="normal" in2="BackgroundImageFix" result="effect1_dropShadow_10_295"/>
<feBlend mode="normal" in="SourceGraphic" in2="effect1_dropShadow_10_295" result="shape"/>
</filter>
<filter id="filter9_d_10_295" x="63" y="76.5322" width="144.581" height="172.839" filterUnits="userSpaceOnUse" color-interpolation-filters="sRGB">
<feFlood flood-opacity="0" result="BackgroundImageFix"/>
<feColorMatrix in="SourceAlpha" type="matrix" values="0 0 0 0 0 0 0 0 0 0 0 0 0 0 0 0 0 0 127 0" result="hardAlpha"/>
<feOffset dx="4" dy="4"/>
<feGaussianBlur stdDeviation="2"/>
<feComposite in2="hardAlpha" operator="out"/>
<feColorMatrix type="matrix" values="0 0 0 0 0 0 0 0 0 0 0 0 0 0 0 0 0 0 0.25 0"/>
<feBlend mode="normal" in2="BackgroundImageFix" result="effect1_dropShadow_10_295"/>
<feBlend mode="normal" in="SourceGraphic" in2="effect1_dropShadow_10_295" result="shape"/>
</filter>
<clipPath id="clip0_10_295">
<rect width="540" height="290" fill="white"/>
</clipPath>
</defs>
</svg>
